<svg xmlns="http://www.w3.org/2000/svg" width="120" height="20" viewBox="0 0 120 20">
    <path fill="#FFF" d="M57.967 0l.28.003.284.01.39.025c1.395.108 2.58.437 3.706.964l.336.164.393.21c1.032.573 1.933 1.264 2.702 2.054l.283.301.298.345c.678.813 1.222 1.69 1.628 2.626l.166.404.149.407c.325.951.51 1.915.551 2.894l.01.42-.008.377c-.04.995-.228 1.928-.567 2.811l-.135.329-.148.322c-.415.848-.973 1.603-1.675 2.277l-.27.249-.282.24c-.77.627-1.67 1.15-2.702 1.583l-.393.158-.405.149c-.543.19-1.1.34-1.689.457l-.447.081-.096-.5c-.063-.335-.121-.67-.172-1.01l-.07-.511-.05-.458c-.048-.49-.076-.987-.063-1.48l.018-.367.022-.253.03-.258c.12-.856.403-1.671.956-2.377l.175-.209.226-.241.237-.229.246-.218.254-.21.26-.202.264-.197 1.256-.892.46-.347.17-.136.135-.114.134-.117.18-.169.174-.176.1-.107.096-.11.124-.153.117-.158.11-.163.143-.241.162-.323.09-.219.07-.223.041-.185.021-.181.002-.091-.005-.088-.012-.086-.02-.078c-.013-.033-.029-.063-.05-.09l-.034-.036-.067-.039c-.071-.027-.154-.021-.232.003l-.075.029-.124.075-.148.126-.275.283-.15.127c-.207.158-.445.276-.695.36l-.19.058-.269.063c-1.362.267-2.846-.129-4.082.56l-.229.141-.163.123c-.191.16-.34.338-.485.525l-.185.247-.05.061c-.06.07-.144.148-.241.185l-.076.02-.032-.004-.031.004-.094-.027c-.09-.04-.167-.113-.224-.178l-.05-.06-.156-.21c-.152-.201-.31-.393-.514-.563l-.162-.123-.243-.15c-1.228-.673-2.698-.285-4.05-.547l-.288-.067-.188-.057c-.249-.084-.488-.2-.696-.36l-.15-.128-.104-.105c-.102-.108-.202-.22-.32-.304l-.123-.075-.08-.032c-.224-.07-.355.071-.389.275l-.008.077.001.087.016.154.008.056.044.221c.07.291.19.572.34.833l.119.192.115.166.121.16.128.155.203.223.214.213.148.137.152.133.155.13.157.126.322.246.325.238.652.463c.542.386 1.08.784 1.552 1.25l.275.288.164.195c.676.855.95 1.87 1.02 2.923l.013.288.005.4c-.003.4-.03.801-.07 1.197l-.045.395-.074.543c-.054.361-.116.72-.183 1.08l-.103.538-.44-.056c-.436-.064-.857-.152-1.27-.265l-.412-.12-.358-.12c-1.044-.368-1.95-.857-2.717-1.488l-.281-.243-.266-.252c-.691-.688-1.244-1.487-1.657-2.405l-.149-.35-.133-.357c-.338-.962-.529-1.996-.568-3.097L48 10.831l.01-.465c.041-1.082.225-2.143.55-3.174l.15-.44.148-.391c.413-1.034.966-1.98 1.657-2.827l.266-.312.252-.275c.86-.898 1.894-1.625 3.104-2.16C55.316.268 56.534 0 57.967 0zM36.894 8.927l.877 2.335.185.537c.07.21.12.384.152.521l.02.096h.03l.074-.258.167-.52.95-2.711H40l-1.721 4.662-.075.189c-.153.362-.328.626-.523.791-.228.193-.507.29-.839.29-.123 0-.245-.01-.367-.029l-.18-.035v-.497l.138.025c.097.014.2.02.31.02.376 0 .654-.193.836-.58l.056-.137.223-.583-1.615-4.116h.65zm82.921-1.853c.079.04.141.116.169.204.02.066.021.136.003.201l-.025.063-1.312 3 1.312 3.001c.041.08.05.176.022.264-.027.086-.086.159-.16.2-.06.045-.121.045-.157.045-.12 0-.222-.061-.277-.159l-1.104-2.524-1.085 2.48c-.06.129-.168.203-.296.203-.068 0-.117-.016-.152-.038l-.031-.025c-.111-.08-.163-.208-.141-.345l.022-.083 1.333-3.018-1.333-3.018c-.031-.084-.033-.177-.004-.262.03-.088.093-.16.172-.196.142-.073.28-.044.378.074l.046.067 1.091 2.493 1.087-2.484c.056-.1.138-.164.231-.184.075-.015.15 0 .211.04zm-18.043-.04c1.083 0 1.61.637 1.61 1.947 0 .571-.1 1.021-.298 1.34l-.08.115c-.055.068-.111.125-.172.177.035.031.07.065.103.102.268.287.42.661.454 1.113l.007.198-.014 1.673c0 .217-.127.353-.33.353-.155 0-.28-.12-.31-.283l-.006-.072v-1.686c0-.651-.29-1.016-.841-1.062l-.123-.005h-.643v2.753c0 .219-.127.355-.33.355-.155 0-.28-.12-.31-.283l-.006-.072V7.373c0-.164.108-.3.252-.332l.064-.007h.973zm-25.279 0c.921 0 1.45.62 1.503 1.754l.005.193v3.123c0 .716-.162 1.228-.494 1.566-.338.342-.74.382-1.014.382-.426 0-.763-.13-1-.384-.299-.304-.46-.748-.488-1.355L75 12.104V8.981c0-1.256.53-1.947 1.493-1.947zm8.298.14l.037.063 1.729 4.634V7.373c0-.19.145-.34.33-.34.162 0 .293.115.323.27l.007.07v6.324c0 .156-.075.277-.199.33l-.066.021-.018.004h-.047c-.122 0-.226-.063-.28-.163l-.026-.065-1.734-4.616v4.49c0 .218-.126.354-.33.354-.178 0-.297-.104-.324-.277l-.006-.078V7.373c0-.164.1-.3.247-.337.109-.028.219.003.301.076l.056.062zm9.088-.14c.162 0 .293.114.324.27l.006.069v6.324c0 .219-.126.355-.33.355-.178 0-.297-.104-.324-.277l-.006-.078V7.373c0-.19.145-.34.33-.34zm16.15 0c.162 0 .294.114.324.27l.006.069v6.324c0 .219-.126.355-.33.355-.178 0-.297-.104-.324-.277l-.006-.078V7.373c0-.19.145-.34.33-.34zm-33.536.693c-.389 0-.786.133-.829 1.079l-.004.175v3.123c0 1.105.421 1.254.833 1.254.688 0 .818-.557.832-1.137V8.98c0-1.102-.4-1.254-.832-1.254zM6.041 8.852c.56 0 1.006.19 1.336.572.33.38.495.896.495 1.546 0 .668-.164 1.189-.493 1.563-.33.375-.784.563-1.363.563-.359 0-.677-.086-.954-.258-.278-.172-.492-.419-.644-.74-.15-.321-.226-.697-.226-1.128 0-.667.163-1.187.49-1.56.326-.372.78-.558 1.36-.558zm10.102 0c.501 0 .899.169 1.19.506.257.296.4.673.433 1.133l.006.203v.392h-2.759l.01.175c.034.395.15.702.347.92.225.248.542.373.952.373.359 0 .715-.064 1.068-.192l.21-.084v.552l-.21.086c-.138.051-.27.09-.398.118-.191.041-.422.062-.692.062-.592 0-1.06-.185-1.402-.553-.342-.369-.513-.88-.513-1.535 0-.66.159-1.185.477-1.573.318-.389.745-.583 1.28-.583zm7.104 0c.502 0 .9.169 1.192.506.255.296.4.673.431 1.133l.007.203v.392h-2.76l.01.175c.034.395.15.702.347.92.226.248.543.373.952.373.36 0 .716-.064 1.068-.192l.211-.084v.552l-.21.086c-.138.051-.27.09-.398.118-.191.041-.422.062-.693.062-.592 0-1.059-.185-1.401-.553-.343-.369-.514-.88-.514-1.535 0-.66.16-1.185.477-1.573.318-.389.745-.583 1.281-.583zm5.965-1.643v5.812h-.494l-.08-.55h-.033l-.088.12c-.278.336-.667.505-1.17.505-.523 0-.93-.183-1.222-.55-.291-.366-.437-.886-.437-1.56 0-.676.147-1.2.439-1.573.292-.374.7-.56 1.22-.56.49 0 .876.163 1.16.49l.09.114h.048l-.026-.295-.014-.287V7.209h.607zm3.23 0h.607l-.002 1.643c-.002.15-.007.292-.015.426l-.012.194h.029l.089-.116c.279-.33.668-.496 1.168-.496.526 0 .935.183 1.226.55.291.368.437.888.437 1.56 0 .673-.147 1.195-.44 1.567-.294.372-.702.559-1.223.559-.26 0-.499-.05-.714-.148-.173-.079-.323-.191-.451-.338l-.092-.116h-.044l-.128.527h-.435V7.209zm-31.057.35l.186.004c1.211.049 1.817.578 1.817 1.588 0 .553-.185.978-.554 1.276-.328.264-.782.411-1.361.44l-.223.006H.62v2.148H0V7.56h1.385zm6.842 1.368h.635l.59 2.35c.12.478.195.817.224 1.018l.009.068h.029l.023-.114c.026-.122.062-.267.107-.437l.083-.303.807-2.582h.658l.792 2.598c.077.257.135.485.175.686l.027.145h.029l.008-.06.027-.154.09-.396.715-2.82h.629l-1.107 4.095h-.72l-.752-2.458-.13-.487-.112-.458h-.03l-.137.579c-.028.112-.055.213-.08.303l-.038.127-.757 2.394h-.702L8.227 8.927zm12.407-.075c.119 0 .23.007.331.02l.148.025-.084.575-.16-.03c-.101-.017-.194-.026-.279-.026-.324 0-.601.135-.831.404-.198.23-.31.51-.339.837l-.007.167v2.197h-.606V8.927h.5l.07.758h.03l.092-.152c.129-.194.277-.349.444-.464.21-.145.44-.217.691-.217zm13.584.527c-.414 0-.712.121-.895.364-.183.243-.274.652-.274 1.227 0 .575.094.987.281 1.235.188.247.489.371.903.371.373 0 .65-.138.833-.416.183-.278.274-.677.274-1.197 0-.533-.091-.93-.274-1.192-.182-.261-.465-.392-.848-.392zm-6.8-.008c-.357 0-.629.142-.818.424-.189.283-.283.682-.283 1.198 0 .523.094.917.281 1.184.188.266.463.4.826.4.415 0 .715-.116.901-.346.163-.202.255-.511.275-.93l.005-.185-.004-.318c-.018-.483-.112-.835-.28-1.055-.188-.248-.49-.372-.904-.372zM6.022 9.38c-.397 0-.697.133-.9.4-.201.266-.303.663-.303 1.191 0 .523.103.922.307 1.195.205.274.506.411.903.411s.699-.136.905-.409c.206-.272.308-.671.308-1.197 0-.52-.102-.916-.308-1.186-.206-.27-.51-.405-.912-.405zm10.112-.008c-.321 0-.578.108-.77.322-.163.183-.27.427-.318.732l-.02.157h2.095c0-.391-.085-.69-.256-.899-.17-.208-.414-.312-.73-.312zm7.105 0c-.322 0-.578.108-.77.322-.163.183-.27.427-.318.732l-.02.157h2.095c0-.391-.086-.69-.256-.899-.17-.208-.414-.312-.731-.312zM1.316 8.11H.62v2.219h.56c.55 0 .948-.091 1.195-.273.246-.182.369-.473.369-.874 0-.361-.116-.63-.348-.807-.202-.155-.503-.242-.904-.261l-.177-.004zm100.442-.397h-.644v2.523h.644c.601 0 .949-.208.949-1.27 0-.913-.257-1.253-.949-1.253z"/>
</svg>
